# xmcd
#
# Track frame offsets: 
#        150
#        18605
#        35787
#        51164
#        67067
#        82254
#        103161
#        120349
#        137819
#        155541
#        174273
#        192065
#        205793
#        217223
#        235005
#        252060
#        273465
#        287820
#        308750
#
# Disc length: 4404 seconds
#
# Revision: 0
# Processed by: cddbd v1.5.2PL0 Copyright (c) Steve Scherf et al.
# Submitted via: ExactAudioCopy v0.99pb4
#
DISCID=1c113213
DTITLE=Mary Chapin Carpnter - The Best Of....
DYEAR=2005
DGENRE=Country
TTITLE0=I Take My Chances
TTITLE1=Passionate Kisses
TTITLE2=He Thinks He'll Keep Her
TTITLE3=I Want To Be Your Girlfriend
TTITLE4=The Better To Dream Of You
TTITLE5=Jubilee
TTITLE6=A Keeper For Every Flame
TTITLE7=Hero In Your Own Hometown
TTITLE8=Naked To The Eye
TTITLE9=Never Had It So Good
TTITLE10=Quittin' Time
TTITLE11=Something Of A Dreamer
TTITLE12=Down In Mary's Land
TTITLE13=That's Real
TTITLE14=House Of Cards
TTITLE15=Outside Looking
TTITLE16=A Road Is Just A Road
TTITLE17=A Lot Like Me
TTITLE18=Heroes And Heroines
EXTD=
EXTT0=
EXTT1=
EXTT2=
EXTT3=
EXTT4=
EXTT5=
EXTT6=
EXTT7=
EXTT8=
EXTT9=
EXTT10=
EXTT11=
EXTT12=
EXTT13=
EXTT14=
EXTT15=
EXTT16=
EXTT17=
EXTT18=
PLAYORDER=
